<svg width="726" height="236" viewBox="0 0 726 236" fill="none" xmlns="http://www.w3.org/2000/svg">
<g clip-path="url(#clip0_39_835)">
<path d="M254.7 4.8512C247.906 4.78703 242.225 4.75684 237.654 4.75684C233.97 4.75684 230.226 5.26641 226.417 6.28178C222.609 7.29716 219.113 9.01461 215.943 11.4228C212.768 13.8348 210.228 17.1376 208.325 21.3274C206.419 25.5173 205.468 30.7263 205.468 36.9468V145.705H233.657V91.611L289.465 90.086V67.8006L233.657 66.2757V42.2766C233.657 38.8493 234.638 36.0862 236.609 33.9913C238.575 31.8964 241.527 30.8508 245.464 30.8508H298.603V7.23299C291.488 6.47429 284.093 5.90055 276.412 5.51931C268.731 5.13807 261.491 4.91914 254.7 4.8512Z" fill="#062F3F"/>
<path d="M348.032 122.464C346.443 121.449 345.269 119.83 344.506 117.606C343.744 115.387 343.363 112.367 343.363 108.559V0.374023H315.174V112.752C315.174 120.498 316.318 126.816 318.601 131.705C320.889 136.593 324.41 140.213 329.174 142.564C333.938 144.916 339.935 146.086 347.171 146.086H361.84V125.707L354.03 124.563C351.618 124.182 349.617 123.487 348.032 122.468V122.464Z" fill="#062F3F"/>
<path d="M440.023 45.1339C433.991 43.1031 426.721 42.084 418.213 42.084C408.943 42.084 401.039 42.6577 394.497 43.7977C387.956 44.9414 382.211 46.2738 377.262 47.7988V64.1806H407.927C414.276 64.1806 419.002 64.6562 422.116 65.6075C425.227 66.5587 427.355 68.0836 428.499 70.1785C429.643 72.2734 430.213 74.9119 430.213 78.0826V85.1298H404.119C392.565 85.1298 384.053 87.6399 378.599 92.6526C373.137 97.6691 370.408 104.052 370.408 111.794V120.936C370.408 129.063 372.82 135.412 377.644 139.983C382.468 144.554 388.752 146.841 396.498 146.841C400.688 146.841 404.719 146.396 408.592 145.509C412.465 144.622 415.956 143.508 419.066 142.176C422.177 140.843 424.811 139.541 426.97 138.273C429.13 137.004 430.651 135.861 431.542 134.845L436.113 145.701H458.398V76.1839C458.398 67.423 456.843 60.5645 453.733 55.6122C450.619 50.6599 446.047 47.1684 440.019 45.1377L440.023 45.1339ZM430.213 122.272C429.956 122.4 429.356 122.653 428.405 123.035C427.454 123.416 426.246 123.831 424.785 124.273C423.324 124.718 421.735 125.163 420.021 125.605C418.308 126.051 416.654 126.432 415.069 126.749C413.48 127.066 412.053 127.224 410.785 127.224C408.497 127.224 406.433 126.877 404.594 126.179C402.752 125.481 401.292 124.307 400.212 122.657C399.133 121.008 398.593 118.913 398.593 116.372V112.183C398.593 108.502 399.767 105.581 402.118 103.422C404.466 101.263 408.116 99.9943 413.069 99.613L430.209 98.4693V122.276L430.213 122.272Z" fill="#062F3F"/>
<path d="M541.636 43.4199L521.363 75.7571L498.783 43.4199H470.401L504.984 93.0789L470.401 145.705H498.972L519.249 113.556L541.636 145.705H570.21L535.608 96.1552L570.21 43.4199H541.636Z" fill="#062F3F"/>
<path d="M607.726 1.89928H586.014C583.349 1.89928 582.013 3.23173 582.013 5.90039V24.5659C582.013 27.11 583.346 28.3745 586.014 28.3745H607.726C610.138 28.3745 611.346 27.1062 611.346 24.5659V5.89661C611.346 4.7529 611.029 3.80169 610.395 3.03922C609.757 2.27674 608.873 1.89551 607.73 1.89551L607.726 1.89928Z" fill="#062F3F"/>
<path d="M610.772 43.4199H582.583V145.701H610.772V43.4199Z" fill="#062F3F"/>
<path d="M721.626 64.6559C719.21 56.8462 715.371 51.105 710.102 47.421C704.828 43.7369 697.815 41.8987 689.054 41.8987C684.355 41.8987 679.467 42.7895 674.39 44.5636C669.309 46.3414 664.738 48.308 660.677 50.4671V0.374023H632.488V145.705H656.106L660.677 135.989C663.213 137.895 665.916 139.673 668.769 141.322C671.627 142.976 674.832 144.308 678.387 145.323C681.939 146.339 685.94 146.845 690.387 146.845C698.389 146.845 704.957 144.972 710.102 141.228C715.243 137.484 719.055 131.799 721.527 124.178C724.004 116.561 725.242 107.037 725.242 95.6078C725.242 82.7854 724.034 72.4656 721.622 64.6559H721.626ZM694.863 112.178C693.403 116.497 691.368 119.513 688.767 121.226C686.163 122.94 683.211 123.797 679.912 123.797C675.722 123.797 672.069 123.291 668.962 122.272C665.848 121.256 663.085 120.113 660.677 118.844V70.2763C663.213 68.8797 666.105 67.5812 669.343 66.3734C672.582 65.1692 676.104 64.5653 679.916 64.5653C682.962 64.5653 685.785 65.2334 688.39 66.5659C690.991 67.8983 693.086 70.6311 694.675 74.7568C696.26 78.8862 697.057 85.3937 697.057 94.2792C697.057 101.896 696.324 107.868 694.867 112.182L694.863 112.178Z" fill="#062F3F"/>
<path d="M97.8611 2.10254C94.9018 6.85857 93.1919 12.4563 93.1919 18.4618C93.1919 23.2367 94.2714 27.7587 96.204 31.8088H78.5425C51.8106 31.8088 30.1405 53.479 30.1405 80.2109V92.5614C25.2788 89.3983 19.4998 87.5714 13.2906 87.5714C8.70819 87.5714 4.35982 88.5641 0.437989 90.3608V80.1618C0.434214 37.0518 35.3835 2.10254 78.4935 2.10254H97.8611Z" fill="#0CC683"/>
<path d="M27.3925 118.656C27.3925 118.807 27.3925 118.965 27.3812 119.116C27.1245 126.711 20.5793 132.735 12.8036 132.131C5.62804 131.572 0.0302736 125.212 0.362441 118.021C0.41906 116.776 0.645537 115.579 1.01923 114.447C2.7933 109.049 7.88904 105.139 13.8718 105.139C21.3192 105.139 27.3888 111.197 27.3888 118.656H27.3925Z" fill="#0CC683"/>
<path d="M137.785 18.7718C137.623 25.9209 131.67 31.8508 124.525 31.9867C121.951 32.0358 119.516 31.3564 117.448 30.1409C113.439 27.778 110.748 23.4297 110.748 18.4622C110.748 13.4948 113.439 9.14647 117.448 6.79488C119.444 5.62097 121.785 4.94531 124.264 4.94531C131.825 4.94531 137.959 11.1734 137.789 18.7718H137.785Z" fill="#0CC683"/>
<path d="M144.836 55.9365V85.6391H92.6408C87.7942 85.6391 83.8685 89.5647 83.8685 94.4113V146.607H54.166V81.1321C54.166 67.2189 65.4446 55.9365 79.3616 55.9365H144.84H144.836Z" fill="#0CC683"/>
<path d="M4.79366 179.076V209.126C4.79366 215.603 9.13448 219.812 15.9326 219.812C22.7307 219.812 27.0073 215.407 27.0073 209.126V179.076H31.8011V209.258C31.8011 218.196 25.5843 224.153 16.193 224.153H15.6117C6.22047 224.153 0.00366211 218.325 0.00366211 209.258V179.076H4.79366Z" fill="#062F3F"/>
<path d="M67.0977 200.452C67.0977 201.294 66.9693 202.008 66.9014 202.396H62.821V201.23C62.821 197.41 61.0092 193.586 55.6341 193.586C50.2591 193.586 47.9264 198.573 47.9264 203.106V223.508H43.3289V190.412H46.5675L47.3451 195.334C47.9943 194.104 50.5837 189.763 56.8647 189.763C63.6665 189.763 67.0977 194.685 67.0977 200.449V200.452Z" fill="#062F3F"/>
<path d="M102.715 206.084V206.797C102.715 218.389 97.1436 224.153 89.4396 224.153C84.4533 224.153 80.6976 222.145 78.2365 218.129L76.553 223.504H74.7412V176.872H79.3387V194.813C81.3468 191.835 85.0384 189.762 89.4434 189.762C97.3437 189.762 102.719 195.851 102.719 206.084H102.715ZM79.2708 206.409V206.99C79.2708 216.706 83.0907 220.333 88.7262 220.333C94.3617 220.333 98.1175 216.449 98.1175 206.926V206.276C98.1175 197.599 94.2296 193.582 88.7262 193.582C83.2228 193.582 79.2708 197.599 79.2708 206.405V206.409Z" fill="#062F3F"/>
<path d="M137.106 199.675V218.133C137.106 219.688 137.883 220.333 138.853 220.333C139.823 220.333 140.99 219.88 141.964 219.295V222.923C140.669 223.7 139.114 224.153 137.43 224.153C133.867 224.153 132.704 221.432 132.572 217.936C129.919 222.209 125.967 224.153 120.72 224.153C114.567 224.153 110.098 221.756 110.098 214.634C110.098 205.824 117.742 204.012 132.508 204.012V200.384C132.508 195.202 129.787 193.582 124.347 193.582C119.361 193.582 115.862 195.462 115.862 199.607V200.513H111.393C111.329 200.06 111.265 199.41 111.265 198.633C111.265 193.386 117.028 189.759 124.412 189.759H124.8C133.089 189.759 137.106 193.126 137.106 199.667V199.675ZM114.696 214.894C114.696 218.586 116.964 220.333 122.015 220.333C127.065 220.333 132.508 216.642 132.508 209.583V207.771C119.75 207.771 114.699 209.002 114.699 214.894H114.696Z" fill="#062F3F"/>
<path d="M177.196 201.747V223.508H172.663V202.781C172.663 196.304 169.424 193.586 164.438 193.586C159.127 193.586 154.854 197.927 154.854 203.495V223.508H150.256V190.412H153.495L154.273 195.334C156.798 191.707 160.814 189.763 165.219 189.763C172.213 189.763 177.2 193.583 177.2 201.743L177.196 201.747Z" fill="#062F3F"/>
<path d="M227.972 195.334C230.369 191.706 233.932 189.763 238.141 189.763C244.554 189.763 249.152 193.715 249.152 201.743V223.504H244.554V202.777C244.554 196.561 242.093 193.582 237.431 193.582C232.77 193.582 229.142 197.855 229.142 203.491V223.504H224.545V202.777C224.545 196.561 222.084 193.582 217.422 193.582C212.761 193.582 209.069 197.855 209.069 203.491V223.504H204.471V190.408H207.71L208.552 195.33C210.752 191.703 214.251 189.759 218.396 189.759C222.541 189.759 226.104 191.571 227.98 195.33L227.972 195.334Z" fill="#062F3F"/>
<path d="M258.928 207.768V206.148C258.928 195.787 264.82 189.763 273.305 189.763H273.566C282.115 189.763 288.007 195.851 288.007 206.148V207.768C288.007 218.065 282.115 224.153 273.63 224.153H273.369C264.82 224.153 258.928 218.129 258.928 207.768ZM283.41 207.704V206.213C283.41 197.923 279.394 193.583 273.502 193.583C267.609 193.583 263.529 197.791 263.529 206.213V207.704C263.529 215.993 267.545 220.333 273.502 220.333C279.458 220.333 283.41 216.125 283.41 207.704Z" fill="#062F3F"/>
<path d="M325.765 206.084V206.797C325.765 218.389 320.194 224.153 312.49 224.153C307.504 224.153 303.748 222.145 301.287 218.129L299.603 223.504H297.792V176.872H302.389V194.813C304.397 191.835 308.089 189.762 312.494 189.762C320.394 189.762 325.769 195.851 325.769 206.084H325.765ZM302.321 206.409V206.99C302.321 216.706 306.141 220.333 311.776 220.333C317.412 220.333 321.168 216.449 321.168 206.926V206.276C321.168 197.599 317.284 193.582 311.776 193.582C306.269 193.582 302.321 197.599 302.321 206.405V206.409Z" fill="#062F3F"/>
<path d="M340.664 181.345H335.677V176.876H340.664V181.345ZM340.471 190.412V223.508H335.874V190.412H340.471Z" fill="#062F3F"/>
<path d="M356.981 176.876V223.508H352.384V176.876H356.981Z" fill="#062F3F"/>
<path d="M374.016 181.345H369.03V176.876H374.016V181.345ZM373.824 190.412V223.508H369.226V190.412H373.824Z" fill="#062F3F"/>
<path d="M391.244 179.854V190.412H398.951V194.232H391.244V215.993C391.244 219.492 392.863 220.334 394.935 220.334C395.973 220.334 397.721 219.881 398.951 219.363V223.055C397.657 223.704 395.841 224.157 393.837 224.157C389.432 224.157 386.65 221.696 386.65 215.932V194.236H383.022V190.416H386.778L388.333 179.858H391.247L391.244 179.854Z" fill="#062F3F"/>
<path d="M418.961 216.837H419.221L429.647 190.415H434.18L421.422 222.473C417.859 231.347 415.594 235.556 410.155 235.556C408.599 235.556 407.305 235.295 405.878 234.65V230.766C406.98 231.219 408.211 231.672 409.245 231.672C412.676 231.672 414.231 229.535 416.628 223.058L403.609 190.415H408.532L418.957 216.837H418.961Z" fill="#062F3F"/>
<path d="M481.461 198.701C481.461 199.09 481.461 199.543 481.397 199.739H476.863V199.026C476.863 196.757 475.437 193.586 468.442 193.586C461.448 193.586 460.282 196.629 460.282 198.833C460.282 206.798 482.239 201.49 482.239 213.796C482.239 221.115 476.799 224.157 468.574 224.157H467.993C458.666 224.157 454.718 219.107 454.718 214.766C454.718 214.249 454.718 213.924 454.782 213.275H459.315C459.251 213.599 459.251 213.792 459.251 214.052C459.251 218.133 462.943 220.333 469.356 220.333C474.082 220.333 477.645 218.133 477.645 214.698C477.645 205.307 455.688 212.041 455.688 199.218C455.688 193.647 460.221 189.763 468.835 189.763H469.224C477.256 189.763 481.465 194.296 481.465 198.701H481.461Z" fill="#062F3F"/>
<path d="M489.942 207.768V206.148C489.942 195.787 495.835 189.763 504.32 189.763H504.58C513.13 189.763 519.022 195.851 519.022 206.148V207.768C519.022 218.065 513.13 224.153 504.645 224.153H504.384C495.835 224.153 489.942 218.129 489.942 207.768ZM514.425 207.704V206.213C514.425 197.923 510.408 193.583 504.516 193.583C498.624 193.583 494.544 197.791 494.544 206.213V207.704C494.544 215.993 498.56 220.333 504.516 220.333C510.473 220.333 514.425 216.125 514.425 207.704Z" fill="#062F3F"/>
<path d="M533.532 176.876V223.508H528.935V176.876H533.532Z" fill="#062F3F"/>
<path d="M549.593 211.139C549.593 217.616 552.832 220.334 557.882 220.334C562.933 220.334 567.402 216.061 567.402 210.425V190.412H571.999V218.133C571.999 219.688 572.777 220.334 573.747 220.334C574.717 220.334 575.883 219.881 576.857 219.296V222.923C575.627 223.701 574.268 224.153 572.713 224.153C568.696 224.153 567.594 221.432 567.53 218.65C565.261 222.081 561.377 224.153 556.78 224.153C550.174 224.153 544.992 220.334 544.992 212.173V190.412H549.589V211.139H549.593Z" fill="#062F3F"/>
<path d="M590.653 179.854V190.412H598.361V194.232H590.653V215.993C590.653 219.492 592.272 220.334 594.345 220.334C595.383 220.334 597.13 219.881 598.361 219.363V223.055C597.066 223.704 595.251 224.157 593.246 224.157C588.841 224.157 586.056 221.696 586.056 215.932V194.236H582.428V190.416H586.184L587.739 179.858H590.653V179.854Z" fill="#062F3F"/>
<path d="M612.674 181.345H607.688V176.876H612.674V181.345ZM612.482 190.412V223.508H607.884V190.412H612.482Z" fill="#062F3F"/>
<path d="M622.647 207.768V206.148C622.647 195.787 628.539 189.763 637.025 189.763H637.285C645.834 189.763 651.727 195.851 651.727 206.148V207.768C651.727 218.065 645.834 224.153 637.349 224.153H637.089C628.539 224.153 622.647 218.129 622.647 207.768ZM647.129 207.704V206.213C647.129 197.923 643.113 193.583 637.221 193.583C631.329 193.583 627.248 197.791 627.248 206.213V207.704C627.248 215.993 631.264 220.333 637.221 220.333C643.177 220.333 647.129 216.125 647.129 207.704Z" fill="#062F3F"/>
<path d="M688.45 201.747V223.508H683.917V202.781C683.917 196.304 680.678 193.586 675.692 193.586C670.381 193.586 666.108 197.927 666.108 203.495V223.508H661.511V190.412H664.749L665.527 195.334C668.052 191.707 672.068 189.763 676.473 189.763C683.468 189.763 688.454 193.583 688.454 201.743L688.45 201.747Z" fill="#062F3F"/>
<path d="M724.392 198.701C724.392 199.09 724.392 199.543 724.328 199.739H719.795V199.026C719.795 196.757 718.368 193.586 711.373 193.586C704.379 193.586 703.213 196.629 703.213 198.833C703.213 206.798 725.17 201.49 725.17 213.796C725.17 221.115 719.73 224.157 711.506 224.157H710.924C701.597 224.157 697.649 219.107 697.649 214.766C697.649 214.249 697.649 213.924 697.713 213.275H702.246C702.182 213.599 702.182 213.792 702.182 214.052C702.182 218.133 705.874 220.333 712.287 220.333C717.013 220.333 720.576 218.133 720.576 214.698C720.576 205.307 698.619 212.041 698.619 199.218C698.619 193.647 703.152 189.763 711.766 189.763H712.155C720.187 189.763 724.396 194.296 724.396 198.701H724.392Z" fill="#062F3F"/>
</g>
<defs>
<clipPath id="clip0_39_835">
<rect width="725.245" height="235.178" fill="white" transform="translate(0 0.374023)"/>
</clipPath>
</defs>
</svg>
